<svg xmlns="http://www.w3.org/2000/svg" xmlns:bx="https://boxy-svg.com" viewBox="29.14 92.34 184.56 272.51">
  <defs>
    <path id="path-0" d="M 99.426 145.209 C 114.954 171.253 129.046 185.362 140.535 185.362 C 150.784 186.318 158.082 183.45 163.48 183.45 C 173.491 183.45 172.642 174.288 176.864 170.066 C 181.41 166.476 180.688 159.568 180.688 154.769 C 180.688 146.963 181.644 141.488 181.644 135.649 C 181.644 130.534 181.415 123.221 177.82 123.221 C 167.485 118.501 158.993 112.924 151.052 106.968 C 145.989 100.667 136.424 105.056 133.843 105.056 L 132.887 105.056 C 128.45 105.056 124.56 107.924 120.459 107.924" style="fill: none;"/>
  </defs>
  <rect x="29.637" y="92.84" width="183.557" height="271.511" style="fill: rgb(216, 216, 216); stroke: rgb(0, 0, 0); fill-opacity: 0;"/>
  <path style="stroke: rgb(0, 0, 0); fill: rgb(9, 81, 11);" transform="matrix(0.956023, 0, 0, 0.956023, -164.435944, -261.737823)" d="M 213 447 A 68.007 68.007 0 0 1 281 377.993 L 281 417.437 A 28.563 28.563 0 0 0 252.44 446.42 Z" bx:shape="pie 281 446 28.563 68.007 269.157 360 1@41973680"/>
  <rect x="39.197" y="171.552" width="36.329" height="140.536" style="stroke: rgb(0, 0, 0); fill: rgb(9, 81, 11);"/>
  <rect x="38.241" y="315.913" width="109.943" height="37.285" style="stroke: rgb(0, 0, 0); fill: rgb(9, 81, 11);"/>
  <path style="stroke: rgb(0, 0, 0); fill: rgb(22, 148, 179);" transform="matrix(0.946832, 0, 0, 1.046163, -151.438065, -54.627583)" d="M 374.01 335.88 A 52.01 52.01 0 0 1 322.758 388.004 L 322.237 352.295 A 16.297 16.297 0 0 0 338.297 335.962 Z" bx:shape="pie 322 336 16.297 52.01 89.868 179.165 1@c513825e"/>
  <path style="fill: rgb(216, 216, 216); stroke: rgb(0, 0, 0);"/>
  <rect x="168.261" y="143.829" width="35.373" height="148.183" style="stroke: rgb(0, 0, 0); fill: rgb(22, 148, 179);"/>
  <rect x="108.987" y="99.851" width="94.646" height="38.241" style="stroke: rgb(0, 0, 0); fill: rgb(22, 148, 179);"/>
</svg>